<svg fill="none" height="117" viewBox="0 0 120 117" width="120" xmlns="http://www.w3.org/2000/svg">
	<path d="M82.2142 0C86.8716 0 91.3383 1.84901 94.6316 5.14028C97.925 8.43154 99.7751 12.8955 99.7751 17.55V81.9C99.7751 86.5546 97.925 91.0185 94.6316 94.3097C91.3383 97.601 86.8716 99.45 82.2142 99.45H70.5068C75.1643 99.45 79.631 97.601 82.9243 94.3097C86.2176 91.0185 88.0678 86.5546 88.0678 81.9V17.55C88.0678 12.8955 86.2176 8.43154 82.9243 5.14028C79.631 1.84901 75.1643 0 70.5068 0L82.2142 0Z" fill="#5791FF" />
	<path d="M23.6777 17.55C23.6777 12.8955 25.5279 8.43154 28.8212 5.14028C32.1145 1.84901 36.5813 0 41.2387 0L70.507 0C75.1645 0 79.6312 1.84901 82.9245 5.14028C86.2178 8.43154 88.068 12.8955 88.068 17.55V81.9C88.068 86.5546 86.2178 91.0185 82.9245 94.3097C79.6312 97.601 75.1645 99.45 70.507 99.45H41.2387C36.5813 99.45 32.1145 97.601 28.8212 94.3097C25.5279 91.0185 23.6777 86.5546 23.6777 81.9V17.55Z" fill="#B3CDFF" fill-opacity="0.8" />
	<path d="M47.0928 96.525C47.0928 101.955 44.9343 107.163 41.0921 111.003C37.2498 114.843 32.0387 117 26.605 117C21.1713 117 15.9601 114.843 12.1179 111.003C8.27572 107.163 6.11719 101.955 6.11719 96.525C6.11719 91.0947 8.27572 85.8868 12.1179 82.047C15.9601 78.2072 21.1713 76.05 26.605 76.05C32.0387 76.05 37.2498 78.2072 41.0921 82.047C44.9343 85.8868 47.0928 91.0947 47.0928 96.525Z" fill="#80ACFF" />
	<path d="M26.6046 76.05C29.5426 76.0497 32.4463 76.6808 35.1188 77.9007C37.7913 79.1206 40.1699 80.9006 42.0935 83.1201C44.017 85.3395 45.4403 87.9465 46.267 90.764C47.0937 93.5816 47.3043 96.5439 46.8846 99.45H41.2387C36.5813 99.45 32.1145 97.601 28.8212 94.3097C25.5279 91.0185 23.6777 86.5545 23.6777 81.9V76.2547C24.6319 76.1202 25.6094 76.05 26.6046 76.05Z" fill="#004AD7" />
	<path d="M58.7998 35.1C58.7998 31.997 60.0333 29.021 62.2288 26.8269C64.4243 24.6327 67.4021 23.4 70.5071 23.4H105.629C108.734 23.4 111.712 24.6327 113.907 26.8269C116.103 29.021 117.336 31.997 117.336 35.1V70.2L105.629 81.9H70.5071C67.4021 81.9 64.4243 80.6673 62.2288 78.4732C60.0333 76.279 58.7998 73.3031 58.7998 70.2V35.1Z" fill="#80ACFF" />
	<path d="M58.7998 35.1C58.7998 31.997 60.0333 29.021 62.2288 26.8269C64.4243 24.6327 67.4021 23.4 70.5071 23.4H105.629C108.734 23.4 111.712 24.6327 113.907 26.8269C116.103 29.021 117.336 31.997 117.336 35.1V40.95H58.7998V35.1Z" fill="#004AD7" />
	<path d="M76.3605 17.55C77.913 17.55 79.4019 18.1663 80.4997 19.2634C81.5974 20.3605 82.2142 21.8485 82.2142 23.4V29.25C82.2142 30.8015 81.5974 32.2895 80.4997 33.3866C79.4019 34.4836 77.913 35.1 76.3605 35.1C74.808 35.1 73.3191 34.4836 72.2213 33.3866C71.1236 32.2895 70.5068 30.8015 70.5068 29.25V23.4C70.5068 21.8485 71.1236 20.3605 72.2213 19.2634C73.3191 18.1663 74.808 17.55 76.3605 17.55ZM99.7751 17.55C101.328 17.55 102.817 18.1663 103.914 19.2634C105.012 20.3605 105.629 21.8485 105.629 23.4V29.25C105.629 30.8015 105.012 32.2895 103.914 33.3866C102.817 34.4836 101.328 35.1 99.7751 35.1C98.2226 35.1 96.7337 34.4836 95.636 33.3866C94.5382 32.2895 93.9215 30.8015 93.9215 29.25V23.4C93.9215 21.8485 94.5382 20.3605 95.636 19.2634C96.7337 18.1663 98.2226 17.55 99.7751 17.55Z" fill="#0B5FFF" />
	<path d="M82.2142 23.4V29.25C82.2142 30.8015 81.5974 32.2895 80.4997 33.3866C79.4019 34.4837 77.913 35.1 76.3605 35.1C74.808 35.1 73.3191 34.4837 72.2213 33.3866C71.1236 32.2895 70.5068 30.8015 70.5068 29.25V23.4H82.2142ZM105.629 23.4V29.25C105.629 30.8015 105.012 32.2895 103.914 33.3866C102.817 34.4837 101.328 35.1 99.7751 35.1C98.2226 35.1 96.7337 34.4837 95.636 33.3866C94.5382 32.2895 93.9215 30.8015 93.9215 29.25V23.4H105.629Z" fill="#B3CDFF" />
	<path d="M105.629 73.125C105.629 72.3492 105.937 71.6053 106.486 71.0567C107.035 70.5082 107.78 70.2 108.556 70.2H117.336L105.629 81.9V73.125ZM64.6534 52.65C64.6534 51.0985 65.2701 49.6105 66.3679 48.5134C67.4657 47.4163 68.9546 46.8 70.507 46.8C72.0595 46.8 73.5484 47.4163 74.6462 48.5134C75.744 49.6105 76.3607 51.0985 76.3607 52.65C76.3607 54.2015 75.744 55.6895 74.6462 56.7866C73.5484 57.8837 72.0595 58.5 70.507 58.5C68.9546 58.5 67.4657 57.8837 66.3679 56.7866C65.2701 55.6895 64.6534 54.2015 64.6534 52.65ZM64.6534 70.2C64.6534 68.6485 65.2701 67.1605 66.3679 66.0634C67.4657 64.9663 68.9546 64.35 70.507 64.35H88.068C89.6205 64.35 91.1094 64.9663 92.2072 66.0634C93.305 67.1605 93.9217 68.6485 93.9217 70.2C93.9217 71.7515 93.305 73.2395 92.2072 74.3366C91.1094 75.4337 89.6205 76.05 88.068 76.05H70.507C68.9546 76.05 67.4657 75.4337 66.3679 74.3366C65.2701 73.2395 64.6534 71.7515 64.6534 70.2ZM82.2144 52.65C82.2144 51.0985 82.8311 49.6105 83.9289 48.5134C85.0266 47.4163 86.5155 46.8 88.068 46.8C89.6205 46.8 91.1094 47.4163 92.2072 48.5134C93.305 49.6105 93.9217 51.0985 93.9217 52.65C93.9217 54.2015 93.305 55.6895 92.2072 56.7866C91.1094 57.8837 89.6205 58.5 88.068 58.5C86.5155 58.5 85.0266 57.8837 83.9289 56.7866C82.8311 55.6895 82.2144 54.2015 82.2144 52.65ZM99.7753 52.65C99.7753 51.0985 100.392 49.6105 101.49 48.5134C102.588 47.4163 104.077 46.8 105.629 46.8C107.181 46.8 108.67 47.4163 109.768 48.5134C110.866 49.6105 111.483 51.0985 111.483 52.65C111.483 54.2015 110.866 55.6895 109.768 56.7866C108.67 57.8837 107.181 58.5 105.629 58.5C104.077 58.5 102.588 57.8837 101.49 56.7866C100.392 55.6895 99.7753 54.2015 99.7753 52.65ZM2.31193 25.2837C3.64462 24.0183 5.41269 23.3128 7.25095 23.3128C9.08922 23.3128 10.8573 24.0183 12.19 25.2837L28.6563 41.1548C29.3028 41.7682 29.8176 42.5068 30.1694 43.3254C30.5212 44.1441 30.7026 45.0257 30.7026 45.9167C30.7026 46.8076 30.5212 47.6892 30.1694 48.5079C29.8176 49.3265 29.3028 50.0651 28.6563 50.6786C27.3235 51.9448 25.5548 52.6508 23.7158 52.6508C21.8769 52.6508 20.1082 51.9448 18.7753 50.6786L2.31193 34.8075C1.66544 34.194 1.15063 33.4555 0.798836 32.6368C0.447043 31.8182 0.265625 30.9366 0.265625 30.0456C0.265625 29.1547 0.447043 28.273 0.798836 27.4544C1.15063 26.6357 1.66544 25.8972 2.31193 25.2837Z" fill="#004AD7" />
	<path d="M18.7904 50.6785C18.144 50.0651 17.6291 49.3265 17.2774 48.5079C16.9256 47.6892 16.7441 46.8076 16.7441 45.9166C16.7441 45.0257 16.9256 44.1441 17.2774 43.3254C17.6291 42.5068 18.144 41.7682 18.7904 41.1547L48.4304 12.5863C49.7631 11.3209 51.5312 10.6154 53.3695 10.6154C55.2077 10.6154 56.9758 11.3209 58.3085 12.5863C58.955 13.1997 59.4698 13.9383 59.8216 14.7569C60.1734 15.5756 60.3548 16.4572 60.3548 17.3482C60.3548 18.2391 60.1734 19.1207 59.8216 19.9394C59.4698 20.758 58.955 21.4966 58.3085 22.1101L28.6714 50.6785C27.3391 51.9446 25.5709 52.6505 23.7324 52.6505C21.8939 52.6505 20.1228 51.9446 18.7904 50.6785Z" fill="#5791FF" />
	<path d="M28.6539 41.1547C29.3004 41.7682 29.8152 42.5068 30.167 43.3254C30.5187 44.1441 30.7002 45.0257 30.7002 45.9166C30.7002 46.8076 30.5187 47.6892 30.167 48.5079C29.8152 49.3265 29.3004 50.065 28.6539 50.6785C27.3265 51.9469 25.5587 52.6515 23.7222 52.6441C21.8864 52.652 20.1193 51.9473 18.7934 50.6785C18.1469 50.065 17.6321 49.3265 17.2803 48.5079C16.9285 47.6892 16.7471 46.8076 16.7471 45.9166C16.7471 45.0257 16.9285 44.1441 17.2803 43.3254C17.6321 42.5068 18.1469 41.7682 18.7934 41.1547L23.7222 36.3987L28.6568 41.1547H28.6539Z" fill="#0B5FFF" />
</svg>