<svg fill="none" height="30" viewBox="0 0 30 30" width="30" xmlns="http://www.w3.org/2000/svg">
	<path d="M0 15C0 6.71573 6.71573 0 15 0C23.2843 0 30 6.71573 30 15C30 23.2843 23.2843 30 15 30C6.71573 30 0 23.2843 0 15Z" fill="#E7EFFF" />
	<path d="M11.536 19V9.886H14.77C15.442 9.886 16.0533 9.97933 16.604 10.166C17.1547 10.3527 17.598 10.6607 17.934 11.09C18.27 11.5193 18.438 12.112 18.438 12.868C18.438 13.596 18.27 14.1933 17.934 14.66C17.6073 15.1173 17.1687 15.458 16.618 15.682C16.0673 15.8967 15.47 16.004 14.826 16.004H13.776V19H11.536ZM13.776 14.24H14.714C15.2367 14.24 15.624 14.1233 15.876 13.89C16.128 13.6473 16.254 13.3067 16.254 12.868C16.254 12.42 16.114 12.1073 15.834 11.93C15.5633 11.7527 15.1713 11.664 14.658 11.664H13.776V14.24Z" fill="#0B5FFF" />
</svg>